# xmcd
# 
# Track frame offsets:
#     150
#     13238
#     28746
#     34069
#     43838
#     64079
#     79496
#     94570
#     105288
#     119627
#     129273
#     138154
#     148833
#     168860
# 
# Disc length: 2500
# 
# Revision: 0
# Processed by: cddbd v1.5.2PL0 Copyright (c) Steve Scherf et al.
# Submitted via: fre:ac v1.0.31
# 
DISCID=bd09c20e
DTITLE=Bob Walser - Landlocked
DYEAR=2002
DGENRE=Folk
TTITLE0=Rollin' Down the River
TTITLE1=The Captain's Hornpipe/ Puddleglum's Misery
TTITLE2=Mobile Bay
TTITLE3=Johnson Girls
TTITLE4=Get Her Into Shore
TTITLE5=Henry the Accountant
TTITLE6=Old Zeb
TTITLE7=Skipper Jan Rebek
TTITLE8=The Schooner
TTITLE9=Pull Down Below
TTITLE10=Hvem Kan Segle Foruten Vind
TTITLE11=Didn't My Lord Deliver Daniel
TTITLE12=Follow the Drinking Gourd
TTITLE13=Peace Song
EXTD=ONTCD2022\nPreviously released as cassette CC11154
EXTT0=
EXTT1=
EXTT2=
EXTT3=
EXTT4=
EXTT5=
EXTT6=
EXTT7=
EXTT8=
EXTT9=
EXTT10=
EXTT11=
EXTT12=
EXTT13=
PLAYORDER=
